<?xml version="1.0" encoding="iso-8859-1"?>
<!-- Generator: Adobe Illustrator 19.0.0, SVG Export Plug-In . SVG Version: 6.00 Build 0)  -->
<svg version="1.1" id="Layer_1" xmlns="http://www.w3.org/2000/svg" xmlns:xlink="http://www.w3.org/1999/xlink" x="0px" y="0px"
	 viewBox="0 0 512 512" style="enable-background:new 0 0 512 512;" xml:space="preserve">
<g>
	<path style="fill:#FEE187;" d="M473.097,152.633c31.399-31.399,31.399-82.307,0-113.707l0,0
		c-31.399-31.399-82.307-31.399-113.707,0l-71.554,71.554l113.707,113.707L473.097,152.633z"/>
	<polygon style="fill:#FEE187;" points="144.492,423.562 89.043,423.562 88.461,422.981 88.461,367.531 39.257,359.06 
		29.342,368.975 15.399,496.624 143.049,482.682 152.962,472.767 	"/>
</g>
<path style="fill:#FFC61B;" d="M483.971,28.053C465.879,9.962,441.827,0,416.244,0c-25.583,0-49.637,9.962-67.727,28.053
	l-71.554,71.554l-248.58,248.58l-9.915,9.915c-2.476,2.476-4.033,5.723-4.413,9.203L0.113,494.954
	c-0.506,4.634,1.118,9.247,4.413,12.543c2.9,2.898,6.818,4.504,10.873,4.504c0.555,0,1.113-0.031,1.67-0.091l127.649-13.942
	c3.481-0.38,6.727-1.937,9.203-4.413l9.915-9.915l172.458-172.458c6.005-6.004,6.005-15.741,0-21.747
	c-6.004-6.004-15.741-6.004-21.747,0L163.079,440.902l-3.435-19.952c-1.032-5.994-5.449-10.676-11.085-12.221
	c-1.301-0.357-2.666-0.546-4.069-0.546h-18.905l153.857-153.857c6.004-6.005,6.004-15.741,0-21.747
	c-6.004-6.003-15.741-6.003-21.747,0l-153.857,153.86v-18.907c0-1.404-0.189-2.769-0.546-4.069
	c-1.545-5.635-6.227-10.053-12.221-11.085l-19.952-3.435l216.717-216.716l102.833,102.833c3.003,3.003,6.938,4.504,10.873,4.504
	s7.871-1.501,10.873-4.504l71.554-71.554C521.314,126.161,521.314,65.398,483.971,28.053z M136.459,467.527l-0.457,0.457
	L32.765,479.259L44.04,376.022l0.457-0.457l28.588,4.922v42.494c0,4.078,1.621,7.99,4.504,10.873l0.581,0.581
	c2.883,2.883,6.795,4.504,10.873,4.504h42.494L136.459,467.527z M462.224,141.76l-60.682,60.682l-91.962-91.962l17.764-17.764
	l62.213,62.213c3.003,3.003,6.938,4.504,10.873,4.504c3.935,0,7.871-1.501,10.873-4.504c6.005-6.005,6.005-15.741,0-21.747
	L349.09,70.968l21.172-21.172c12.283-12.28,28.612-19.044,45.982-19.044c17.369,0,33.699,6.764,45.98,19.047
	C487.578,75.152,487.578,116.407,462.224,141.76z"/>
<g>
</g>
<g>
</g>
<g>
</g>
<g>
</g>
<g>
</g>
<g>
</g>
<g>
</g>
<g>
</g>
<g>
</g>
<g>
</g>
<g>
</g>
<g>
</g>
<g>
</g>
<g>
</g>
<g>
</g>
</svg>
